<svg width="33" height="33" viewBox="0 0 33 33" fill="none" xmlns="http://www.w3.org/2000/svg">
<rect x="0.5" y="0.5" width="32" height="32" rx="4" fill="#FA541C"/>
<path fill-rule="evenodd" clip-rule="evenodd" d="M26.8185 11.4521L24.2585 20.8388C24.2111 21.013 24.0593 21.1384 23.8794 21.1522L13.9145 21.9187L13.4434 22.8601H22.9935C23.2291 22.8601 23.4202 23.0512 23.4202 23.2868C23.4202 23.5225 23.2291 23.7135 22.9935 23.7135H12.7534C12.6055 23.7135 12.4682 23.637 12.3904 23.5112C12.3126 23.3854 12.3056 23.2283 12.3717 23.096L12.9221 21.9952L12.7856 22.0056L12.7534 22.0068C12.5575 22.0069 12.3866 21.8736 12.3392 21.6835L9.09504 8.66336C9.04305 8.4796 8.87513 8.3529 8.68416 8.35334H5.92667C5.69103 8.35334 5.5 8.16231 5.5 7.92667C5.5 7.69103 5.69103 7.5 5.92667 7.5H8.68416C9.26369 7.50089 9.77074 7.89002 9.9215 8.4496L10.5374 10.9213C10.5646 10.9161 10.5923 10.9134 10.62 10.9134H26.4069C26.5398 10.9134 26.6651 10.9754 26.7458 11.081C26.8266 11.1866 26.8534 11.3238 26.8185 11.4521ZM14.8868 16.4601C14.8868 16.2244 15.0778 16.0334 15.3135 16.0334H17.4468V13.9C17.4468 13.6644 17.6378 13.4734 17.8735 13.4734C18.1091 13.4734 18.3002 13.6644 18.3002 13.9V16.0334H20.4335C20.6692 16.0334 20.8602 16.2244 20.8602 16.4601C20.8602 16.6957 20.6692 16.8867 20.4335 16.8867H18.3002V19.0201C18.3002 19.2557 18.1091 19.4467 17.8735 19.4467C17.6378 19.4467 17.4468 19.2557 17.4468 19.0201V16.8867H15.3135C15.0778 16.8867 14.8868 16.6957 14.8868 16.4601ZM10.7473 11.7667H25.8482L23.5138 20.3243L13.0798 21.1272L10.7473 11.7667ZM14.0334 24.5668C13.5622 24.5668 13.1801 24.9489 13.1801 25.4202C13.1801 25.8915 13.5622 26.2735 14.0334 26.2735C14.5047 26.2735 14.8868 25.8915 14.8868 25.4202C14.8868 24.9489 14.5047 24.5668 14.0334 24.5668ZM20.8602 25.4202C20.8602 24.9489 21.2423 24.5668 21.7135 24.5668C22.1848 24.5668 22.5669 24.9489 22.5669 25.4202C22.5669 25.8915 22.1848 26.2735 21.7135 26.2735C21.2423 26.2735 20.8602 25.8915 20.8602 25.4202Z" fill="white"/>
</svg>
